<mxfile host="65bd71144e">
    <diagram id="C5RBs43oDa-KdzZeNtuy" name="Page-1">
        <mxGraphModel dx="1957" dy="521" grid="1" gridSize="10" guides="1" tooltips="1" connect="1" arrows="1" fold="1" page="1" pageScale="1" pageWidth="827" pageHeight="1169" math="0" shadow="0">
            <root>
                <mxCell id="WIyWlLk6GJQsqaUBKTNV-0"/>
                <mxCell id="WIyWlLk6GJQsqaUBKTNV-1" parent="WIyWlLk6GJQsqaUBKTNV-0"/>
                <mxCell id="wfYmzi1HM81kwz6jv-So-7" style="edgeStyle=orthogonalEdgeStyle;rounded=0;orthogonalLoop=1;jettySize=auto;html=1;fillColor=#dae8fc;strokeColor=#6c8ebf;strokeWidth=3;" parent="WIyWlLk6GJQsqaUBKTNV-1" source="wfYmzi1HM81kwz6jv-So-0" target="wfYmzi1HM81kwz6jv-So-6" edge="1">
                    <mxGeometry relative="1" as="geometry"/>
                </mxCell>
                <mxCell id="wfYmzi1HM81kwz6jv-So-0" value="" style="rounded=1;whiteSpace=wrap;html=1;fontSize=12;glass=0;strokeWidth=1;shadow=0;" parent="WIyWlLk6GJQsqaUBKTNV-1" vertex="1">
                    <mxGeometry x="274" y="35" width="280" height="230" as="geometry"/>
                </mxCell>
                <mxCell id="wfYmzi1HM81kwz6jv-So-1" value="Clear json FIle" style="shape=process;whiteSpace=wrap;html=1;backgroundOutline=1;" parent="WIyWlLk6GJQsqaUBKTNV-1" vertex="1">
                    <mxGeometry x="364" y="70" width="100" height="20" as="geometry"/>
                </mxCell>
                <mxCell id="wfYmzi1HM81kwz6jv-So-2" value="write world_news to json" style="shape=process;whiteSpace=wrap;html=1;backgroundOutline=1;" parent="WIyWlLk6GJQsqaUBKTNV-1" vertex="1">
                    <mxGeometry x="364" y="100" width="100" height="40" as="geometry"/>
                </mxCell>
                <mxCell id="wfYmzi1HM81kwz6jv-So-4" value="write tech_news to json" style="shape=process;whiteSpace=wrap;html=1;backgroundOutline=1;" parent="WIyWlLk6GJQsqaUBKTNV-1" vertex="1">
                    <mxGeometry x="364" y="150" width="100" height="40" as="geometry"/>
                </mxCell>
                <mxCell id="wfYmzi1HM81kwz6jv-So-5" value="write travel_news to json" style="shape=process;whiteSpace=wrap;html=1;backgroundOutline=1;" parent="WIyWlLk6GJQsqaUBKTNV-1" vertex="1">
                    <mxGeometry x="364" y="200" width="100" height="40" as="geometry"/>
                </mxCell>
                <mxCell id="wfYmzi1HM81kwz6jv-So-6" value="App_data.json File" style="shape=cylinder3;whiteSpace=wrap;html=1;boundedLbl=1;backgroundOutline=1;size=15;" parent="WIyWlLk6GJQsqaUBKTNV-1" vertex="1">
                    <mxGeometry x="660" y="80" width="156" height="140" as="geometry"/>
                </mxCell>
                <mxCell id="wfYmzi1HM81kwz6jv-So-32" style="edgeStyle=orthogonalEdgeStyle;rounded=0;orthogonalLoop=1;jettySize=auto;html=1;entryX=0.5;entryY=1;entryDx=0;entryDy=0;strokeWidth=3;fillColor=#dae8fc;strokeColor=#6c8ebf;" parent="WIyWlLk6GJQsqaUBKTNV-1" source="wfYmzi1HM81kwz6jv-So-8" target="wfYmzi1HM81kwz6jv-So-31" edge="1">
                    <mxGeometry relative="1" as="geometry"/>
                </mxCell>
                <mxCell id="wfYmzi1HM81kwz6jv-So-8" value="Website_functions" style="shape=process;whiteSpace=wrap;html=1;backgroundOutline=1;" parent="WIyWlLk6GJQsqaUBKTNV-1" vertex="1">
                    <mxGeometry x="927.5" y="340" width="120" height="60" as="geometry"/>
                </mxCell>
                <mxCell id="wfYmzi1HM81kwz6jv-So-28" style="edgeStyle=orthogonalEdgeStyle;rounded=0;orthogonalLoop=1;jettySize=auto;html=1;entryX=0;entryY=0.5;entryDx=0;entryDy=0;strokeColor=#6c8ebf;strokeWidth=3;fillColor=#dae8fc;" parent="WIyWlLk6GJQsqaUBKTNV-1" source="wfYmzi1HM81kwz6jv-So-10" target="wfYmzi1HM81kwz6jv-So-27" edge="1">
                    <mxGeometry relative="1" as="geometry"/>
                </mxCell>
                <mxCell id="wfYmzi1HM81kwz6jv-So-29" style="edgeStyle=orthogonalEdgeStyle;rounded=0;orthogonalLoop=1;jettySize=auto;html=1;entryX=0;entryY=0.5;entryDx=0;entryDy=0;strokeWidth=3;fillColor=#dae8fc;strokeColor=#6c8ebf;" parent="WIyWlLk6GJQsqaUBKTNV-1" source="wfYmzi1HM81kwz6jv-So-10" target="wfYmzi1HM81kwz6jv-So-25" edge="1">
                    <mxGeometry relative="1" as="geometry"/>
                </mxCell>
                <mxCell id="wfYmzi1HM81kwz6jv-So-30" style="edgeStyle=orthogonalEdgeStyle;rounded=0;orthogonalLoop=1;jettySize=auto;html=1;entryX=0;entryY=0.5;entryDx=0;entryDy=0;fillColor=#dae8fc;strokeColor=#6c8ebf;strokeWidth=3;" parent="WIyWlLk6GJQsqaUBKTNV-1" source="wfYmzi1HM81kwz6jv-So-10" target="wfYmzi1HM81kwz6jv-So-24" edge="1">
                    <mxGeometry relative="1" as="geometry"/>
                </mxCell>
                <mxCell id="wfYmzi1HM81kwz6jv-So-10" value="Api_run_functions" style="shape=process;whiteSpace=wrap;html=1;backgroundOutline=1;" parent="WIyWlLk6GJQsqaUBKTNV-1" vertex="1">
                    <mxGeometry x="-50" y="140" width="130" height="50" as="geometry"/>
                </mxCell>
                <mxCell id="wfYmzi1HM81kwz6jv-So-17" style="edgeStyle=orthogonalEdgeStyle;rounded=0;orthogonalLoop=1;jettySize=auto;html=1;entryX=0;entryY=0.5;entryDx=0;entryDy=0;fillColor=#dae8fc;strokeColor=#6c8ebf;strokeWidth=3;" parent="WIyWlLk6GJQsqaUBKTNV-1" target="wfYmzi1HM81kwz6jv-So-2" edge="1">
                    <mxGeometry relative="1" as="geometry">
                        <mxPoint x="240" y="115" as="sourcePoint"/>
                    </mxGeometry>
                </mxCell>
                <mxCell id="wfYmzi1HM81kwz6jv-So-16" style="edgeStyle=orthogonalEdgeStyle;rounded=0;orthogonalLoop=1;jettySize=auto;html=1;strokeWidth=3;fillColor=#dae8fc;strokeColor=#6c8ebf;" parent="WIyWlLk6GJQsqaUBKTNV-1" target="wfYmzi1HM81kwz6jv-So-4" edge="1">
                    <mxGeometry relative="1" as="geometry">
                        <mxPoint x="240" y="170" as="sourcePoint"/>
                    </mxGeometry>
                </mxCell>
                <mxCell id="wfYmzi1HM81kwz6jv-So-19" style="edgeStyle=orthogonalEdgeStyle;rounded=0;orthogonalLoop=1;jettySize=auto;html=1;entryX=0;entryY=0.5;entryDx=0;entryDy=0;fillColor=#dae8fc;strokeColor=#6c8ebf;strokeWidth=3;" parent="WIyWlLk6GJQsqaUBKTNV-1" target="wfYmzi1HM81kwz6jv-So-5" edge="1">
                    <mxGeometry relative="1" as="geometry">
                        <mxPoint x="240" y="220" as="sourcePoint"/>
                    </mxGeometry>
                </mxCell>
                <mxCell id="wfYmzi1HM81kwz6jv-So-23" value="Main File" style="text;html=1;align=center;verticalAlign=middle;whiteSpace=wrap;rounded=0;" parent="WIyWlLk6GJQsqaUBKTNV-1" vertex="1">
                    <mxGeometry x="384" y="30" width="60" height="30" as="geometry"/>
                </mxCell>
                <mxCell id="wfYmzi1HM81kwz6jv-So-24" value="travel_news,js" style="shape=process;whiteSpace=wrap;html=1;backgroundOutline=1;" parent="WIyWlLk6GJQsqaUBKTNV-1" vertex="1">
                    <mxGeometry x="130" y="205" width="110" height="30" as="geometry"/>
                </mxCell>
                <mxCell id="wfYmzi1HM81kwz6jv-So-25" value="tech_news,js" style="shape=process;whiteSpace=wrap;html=1;backgroundOutline=1;" parent="WIyWlLk6GJQsqaUBKTNV-1" vertex="1">
                    <mxGeometry x="130" y="155" width="110" height="30" as="geometry"/>
                </mxCell>
                <mxCell id="wfYmzi1HM81kwz6jv-So-27" value="world_news,js" style="shape=process;whiteSpace=wrap;html=1;backgroundOutline=1;" parent="WIyWlLk6GJQsqaUBKTNV-1" vertex="1">
                    <mxGeometry x="130" y="100" width="110" height="30" as="geometry"/>
                </mxCell>
                <mxCell id="wfYmzi1HM81kwz6jv-So-31" value="" style="rounded=1;whiteSpace=wrap;html=1;" parent="WIyWlLk6GJQsqaUBKTNV-1" vertex="1">
                    <mxGeometry x="865" y="35" width="245" height="215" as="geometry"/>
                </mxCell>
                <mxCell id="wfYmzi1HM81kwz6jv-So-33" style="edgeStyle=orthogonalEdgeStyle;rounded=0;orthogonalLoop=1;jettySize=auto;html=1;entryX=0.02;entryY=0.535;entryDx=0;entryDy=0;entryPerimeter=0;fillColor=#dae8fc;strokeColor=#6c8ebf;strokeWidth=3;" parent="WIyWlLk6GJQsqaUBKTNV-1" source="wfYmzi1HM81kwz6jv-So-6" target="wfYmzi1HM81kwz6jv-So-31" edge="1">
                    <mxGeometry relative="1" as="geometry"/>
                </mxCell>
                <mxCell id="wfYmzi1HM81kwz6jv-So-34" value="World News HTML Table Pull" style="rounded=0;whiteSpace=wrap;html=1;" parent="WIyWlLk6GJQsqaUBKTNV-1" vertex="1">
                    <mxGeometry x="928" y="70" width="122" height="30" as="geometry"/>
                </mxCell>
                <mxCell id="wfYmzi1HM81kwz6jv-So-35" value="Travel News HTML Table Pull" style="rounded=0;whiteSpace=wrap;html=1;" parent="WIyWlLk6GJQsqaUBKTNV-1" vertex="1">
                    <mxGeometry x="925.5" y="185" width="122" height="30" as="geometry"/>
                </mxCell>
                <mxCell id="wfYmzi1HM81kwz6jv-So-36" value="Tech News HTML Table Pull" style="rounded=0;whiteSpace=wrap;html=1;" parent="WIyWlLk6GJQsqaUBKTNV-1" vertex="1">
                    <mxGeometry x="925.5" y="130" width="122" height="30" as="geometry"/>
                </mxCell>
            </root>
        </mxGraphModel>
    </diagram>
</mxfile>